<?xml version="1.0" encoding="utf-8"?>
<!-- Generator: Adobe Adobe Illustrator 24.2.0, SVG Export Plug-In . SVG Version: 6.00 Build 0)  -->
<svg version="1.1" id="Layer_1" xmlns="http://www.w3.org/2000/svg" xmlns:xlink="http://www.w3.org/1999/xlink" x="0px" y="0px"
	 width="3570px" height="1060px" viewBox="0 0 3570 1060" style="enable-background:new 0 0 3570 1060;" xml:space="preserve">
<style type="text/css">
	.st0{fill:#FFFFFF;stroke:#000000;stroke-miterlimit:10;}
	.st1{opacity:0.9804;fill:#636EFF;}
	.st2{fill:#FFFFFF;}
	.st3{opacity:0.9804;}
	.st4{fill:#6671FF;stroke:#FFFFFF;stroke-width:48;stroke-miterlimit:10;}
	.st5{fill:#6671FF;}
	.st6{fill:#6671FF;stroke:#FFFFFF;stroke-width:89;stroke-miterlimit:10;}
</style>
<rect x="3139.29" y="291.42" class="st0" width="24" height="6"/>
<rect x="1882.05" y="218.7" transform="matrix(-0.7071 0.7071 -0.7071 -0.7071 3504.561 -900.6937)" class="st5" width="113.54" height="113.54"/>
<g>
	<path class="st2" d="M202.97,759.99V235.47h198.17c53.99,0,102.1,9.31,144.3,27.92c42.19,18.62,75.36,47.45,99.48,86.5
		c24.11,39.06,36.17,89.26,36.17,150.59c0,57.68-12.19,105.77-36.57,144.3s-57.68,67.37-99.87,86.5
		c-42.21,19.14-90.31,28.7-144.3,28.7H202.97z M321.72,654.62h72.35c52.42,0,92.79-13.88,121.1-41.68
		c28.31-27.78,42.47-65.53,42.47-113.24c0-48.23-13.11-86.9-39.32-115.99c-26.22-29.1-67.63-43.64-124.25-43.64h-72.35V654.62z"/>
	<path class="st2" d="M736.92,575.19c0-36.17,8.38-69.2,25.17-99.08c16.77-29.88,39.97-53.6,69.6-71.17
		c29.61-17.56,64.09-26.34,103.41-26.34s73.79,8.79,103.41,26.34c29.61,17.57,52.69,41.29,69.2,71.17
		c16.51,29.88,24.77,62.91,24.77,99.08s-8.26,69.2-24.77,99.08c-16.51,29.88-39.59,53.75-69.2,71.56
		c-29.62,17.82-64.09,26.74-103.41,26.74s-73.8-8.92-103.41-26.74c-29.62-17.82-52.82-41.68-69.6-71.56
		C745.3,644.39,736.92,611.37,736.92,575.19z M935.09,674.28c19.39,0,35.51-4.72,48.36-14.15c12.84-9.44,22.67-21.75,29.49-36.96
		c6.81-15.2,10.22-31.18,10.22-47.97c0-16.77-3.42-32.63-10.22-47.58c-6.82-14.94-16.65-27.13-29.49-36.57
		c-12.85-9.44-28.97-14.16-48.36-14.16c-18.87,0-35,4.72-48.36,14.16s-23.47,21.63-30.28,36.57c-6.82,14.94-10.22,30.8-10.22,47.58
		c0,16.79,3.4,32.77,10.22,47.97c6.81,15.21,16.91,27.52,30.28,36.96C900.1,669.56,916.22,674.28,935.09,674.28z"/>
	<path class="st2" d="M1199.31,759.99V391.18h108.52l3.93,40.89c11.53-14.15,26.21-25.95,44.04-35.39
		c17.82-9.44,38.79-14.16,62.91-14.16c29.35,0,52.69,5.5,69.99,16.51c17.3,11.01,30.14,22.55,38.53,34.6
		c15.2-16.24,33.68-28.83,55.44-37.75c21.75-8.91,44.43-13.37,68.02-13.37c46.65,0,82.57,13.5,107.74,40.5
		c25.16,27.01,37.75,63.3,37.75,108.92v228.05h-113.24V550.03c0-21.49-4.85-38.4-14.55-50.72c-9.71-12.31-24.25-18.48-43.64-18.48
		c-21.5,0-38.93,7.61-52.29,22.8c-13.37,15.21-20.05,34.6-20.05,58.19v198.17h-109.31V550.03c0-21.49-4.85-38.4-14.55-50.72
		c-9.71-12.31-24.25-18.48-43.64-18.48c-20.97,0-38.28,7.61-51.9,22.8c-13.64,15.21-20.45,34.6-20.45,58.19v198.17H1199.31z"/>
	<path class="st2" d="M1881.1,759.99V391.18h113.24v368.82H1881.1z"/>
	<path class="st2" d="M2081.63,759.99V391.18h108.52l3.15,40.11c12.05-14.67,28.04-26.47,47.97-35.39
		c19.92-8.91,40.36-13.37,61.34-13.37c41.94,0,75.49,12.58,100.66,37.75c25.16,25.17,37.75,62.4,37.75,111.67v228.05h-113.24V547.67
		c0-20.45-5.11-36.69-15.33-48.76c-10.22-12.05-24.51-18.09-42.86-18.09c-24.65,0-43.39,8.13-56.23,24.38
		c-12.85,16.26-19.27,35.13-19.27,56.62v198.17H2081.63z"/>
	<path class="st2" d="M2537.73,887.39l45.61-80.21c14.67,8.91,30.28,15.85,46.79,20.84c16.51,4.98,34.72,7.47,54.65,7.47
		c25.68,0,45.87-6.82,60.55-20.45c14.67-13.64,22.02-34.08,22.02-61.34v-25.95c-23.59,20.45-55.05,30.67-94.37,30.67
		c-35.13,0-65.15-7.47-90.04-22.41c-24.91-14.94-43.92-35.78-57.01-62.52c-13.11-26.74-19.66-57.14-19.66-91.22
		c0-39.84,8.91-74.71,26.74-104.59c17.82-29.88,42.59-53.08,74.31-69.6c31.71-16.51,68.81-24.77,111.27-24.77
		c30.4,0,59.5,2.63,87.29,7.86c27.78,5.25,52.42,11.8,73.92,19.66V748.2c0,60.81-16.78,105.77-50.33,134.87
		c-33.56,29.1-79.42,43.64-137.62,43.64C2627.9,926.71,2576.52,913.6,2537.73,887.39z M2768.14,595.64V484.76
		c-7.35-2.62-14.68-4.58-22.02-5.9c-7.35-1.3-17.04-1.97-29.1-1.97c-32.51,0-56.75,9.97-72.74,29.88
		c-16,19.93-23.98,43.78-23.98,71.56c0,26.22,6.55,47.32,19.66,63.3c13.1,16,31.71,23.98,55.83,23.98
		c23.06,0,40.89-5.63,53.47-16.91C2761.85,637.45,2768.14,619.76,2768.14,595.64z"/>
	<path class="st2" d="M2947.43,575.19c0-36.17,8.38-69.2,25.17-99.08c16.77-29.88,39.97-53.6,69.6-71.17
		c29.61-17.56,64.09-26.34,103.41-26.34s73.79,8.79,103.41,26.34c29.61,17.57,52.69,41.29,69.2,71.17
		c16.51,29.88,24.77,62.91,24.77,99.08s-8.26,69.2-24.77,99.08c-16.51,29.88-39.59,53.75-69.2,71.56
		c-29.62,17.82-64.09,26.74-103.41,26.74s-73.8-8.92-103.41-26.74c-29.62-17.82-52.82-41.68-69.6-71.56
		C2955.81,644.39,2947.43,611.37,2947.43,575.19z M3145.6,674.28c19.39,0,35.51-4.72,48.36-14.15
		c12.84-9.44,22.67-21.75,29.49-36.96c6.81-15.2,10.22-31.18,10.22-47.97c0-16.77-3.42-32.63-10.22-47.58
		c-6.82-14.94-16.65-27.13-29.49-36.57c-12.85-9.44-28.97-14.16-48.36-14.16c-18.87,0-35,4.72-48.36,14.16s-23.47,21.63-30.28,36.57
		c-6.82,14.94-10.22,30.8-10.22,47.58c0,16.79,3.4,32.77,10.22,47.97c6.81,15.21,16.91,27.52,30.28,36.96
		C3110.61,669.56,3126.73,674.28,3145.6,674.28z"/>
</g>
</svg>
